<svg xmlns="http://www.w3.org/2000/svg" width="44" height="44" fill="none"><g clip-path="url(#a)"><mask id="b" width="44" height="44" x="0" y="0" maskUnits="userSpaceOnUse" style="mask-type:luminance"><path fill="#fff" d="M44 0H0v44h44V0Z"/></mask><g mask="url(#b)"><path fill="url(#c)" d="M44 13.816v6.409C44 33.355 34.15 44 22 44S0 33.355 0 20.225v-6.409l22.964 23.747L44 13.816Z"/><path fill="url(#d)" d="M.964 13.787c-.278 0-.553 0-.825.022A21.67 21.67 0 0 0 0 16.242c0 12.1 9.85 21.917 22 21.917.277 0 .55 0 .825-.02.09-.808.137-1.62.139-2.433 0-12.105-9.85-21.919-22-21.919Z"/><path fill="url(#e)" d="M43.864 13.816c-11.64.572-20.9 10.153-20.9 21.89 0-12.1-9.85-21.919-22-21.919-.278 0-.553 0-.825.022A21.67 21.67 0 0 0 0 16.242c0 12.1 9.85 21.917 22 21.917.277 0 .55 0 .825-.02h.275C34.74 37.567 44 27.986 44 16.249c0-.813-.046-1.625-.136-2.433Z"/><path fill="#6F4A9E" d="M22 15.84A7.92 7.92 0 1 0 22 0a7.92 7.92 0 0 0 0 15.84Z"/></g></g><defs><linearGradient id="c" x1="22" x2="22" y1="46.073" y2="31.608" gradientUnits="userSpaceOnUse"><stop stop-color="#FF8A11"/><stop offset="1" stop-color="#E81894"/></linearGradient><linearGradient id="d" x1="25.236" x2="7.227" y1="42.084" y2="20.992" gradientUnits="userSpaceOnUse"><stop stop-color="#B03B83"/><stop offset="1" stop-color="#6F4A9E"/></linearGradient><linearGradient id="e" x1="22" x2="22" y1="33.783" y2="17.897" gradientUnits="userSpaceOnUse"><stop stop-color="#FF8A11"/><stop offset="1" stop-color="#E81894"/></linearGradient><clipPath id="a"><path fill="#fff" d="M0 0h44v44H0z"/></clipPath></defs></svg>