<svg xmlns="http://www.w3.org/2000/svg" width="44" height="44" fill="none"><g clip-path="url(#a)"><path fill="#CECFD2" stroke="#fff" stroke-width="1.571" d="M36.96.786H7.04A6.254 6.254 0 0 0 .786 7.04v29.92c0 3.455 2.8 6.255 6.254 6.255h29.92c3.454 0 6.254-2.8 6.254-6.255V7.04c0-3.454-2.8-6.254-6.254-6.254Z"/><path fill="#476AE6" fill-rule="evenodd" d="M23.842 6.286c.273 0 .495.221.495.494v5.993a.51.51 0 0 0 .423.497c.781.14 1.536.358 2.257.643.337.134.717-.107.717-.47v-2.415c0-.273.221-.495.494-.495h2.41c.272 0 .493.222.493.495V19.687c0 .443-.549.674-.889.39a11.844 11.844 0 0 0-7.605-2.748 11.844 11.844 0 0 0-7.604 2.748c-.34.284-.89.053-.89-.39v-8.66c0-.273.222-.494.495-.494h2.41c.272 0 .493.221.493.494v2.416c0 .363.38.604.717.47.72-.286 1.476-.503 2.258-.643a.51.51 0 0 0 .423-.497V6.78c0-.273.221-.494.494-.494h2.41Zm-1.205 31.429a8.494 8.494 0 1 0 0-16.99 8.494 8.494 0 0 0 0 16.99Z" clip-rule="evenodd"/></g><defs><clipPath id="a"><path fill="#fff" d="M0 0h44v44H0z"/></clipPath></defs></svg>