<svg xmlns="http://www.w3.org/2000/svg" width="44" height="44" fill="none"><g clip-path="url(#a)"><mask id="b" width="44" height="45" x="0" y="0" maskUnits="userSpaceOnUse" style="mask-type:luminance"><path fill="#fff" d="M44 .001H0v44h44v-44Z"/></mask><g mask="url(#b)"><path fill="url(#c)" fill-rule="evenodd" d="M40.702 33.587a22 22 0 1 0-37.387-23.2 22 22 0 0 0 37.379 23.214h.006l.002-.014ZM22.366 2.644c-2.82 5.396-4.831 6.47-6.326 7.257-1.335.71-2.215 1.18-3.533 6.89-1.19 5.156-4.552 8.934-9.154 10.417a19.36 19.36 0 0 0 2.745 5.835c1.515-3.518 5.846-6.603 12.215-8.563 3.848-1.185 3.709-3.139 3.027-7.444-.273-1.727-.58-3.688-.44-5.69.136-1.922 1.034-3.96 2.462-5.585a10.898 10.898 0 0 1 3.312-2.547 19.359 19.359 0 0 0-4.308-.57ZM11.21 38.074a19.359 19.359 0 0 1-3.056-2.543c.296-3.89 5.788-6.944 10.939-8.53 6.201-1.907 5.49-6.417 4.864-10.377-.264-1.665-.537-3.388-.416-5.088.293-4.139 4.267-6.323 7.087-6.867a19.355 19.355 0 0 1 2.407 1.424c-2.053 1.575-5.035 4.94-4.874 11.094.046 1.777.615 3.463 1.218 5.248v.004h.001c1.285 3.815 2.613 7.76-.616 13.66-1.491 2.732-2.79 3.808-4.697 5.152a19.35 19.35 0 0 1-2.606.102c2.11-1.94 4.573-4.784 4.306-7.294-.103-.957-.607-2.268-2.576-3.144-1.969-.875-3.9-.904-5.744-.085-3.126 1.39-5.193 4.968-6.237 7.245ZM30.8 17.127c-.15-5.66 2.89-8.347 4.37-9.315a19.364 19.364 0 0 1 3.661 4.623c-1.932 1.058-4.071 3.13-4.071 6.487 0 2.374.979 4.473 1.936 6.499.985 2.113 1.923 4.126 1.925 6.508a19.361 19.361 0 0 1-9.142 7.93 19.004 19.004 0 0 0 1.598-2.483c3.774-6.89 2.134-11.793.816-15.733l-.013-.04c-.56-1.66-1.045-3.095-1.08-4.476Zm9.47 11.281c-.416-1.39-1.008-2.666-1.568-3.872l-.022-.046c-.884-1.892-1.72-3.68-1.72-5.568 0-2.462 1.61-3.829 2.849-4.514l.077.185a19.359 19.359 0 0 1 .383 13.815Zm-26.767 10.99a19.348 19.348 0 0 0 4.384 1.522c2.418-1.896 5.431-4.978 5.26-6.58l-.001-.002c-.018-.161-.064-.585-1.023-1.01-1.274-.566-2.45-.594-3.599-.084-2.313 1.026-4.087 4.063-5.02 6.154ZM2.816 24.607c3.604-1.253 6.156-4.234 7.117-8.403 1.507-6.55 2.827-7.546 4.866-8.626 1.12-.592 2.456-1.307 4.448-4.737A19.382 19.382 0 0 0 2.64 22c0 .875.06 1.745.176 2.605Z" clip-rule="evenodd"/></g></g><defs><linearGradient id="c" x1="47.56" x2="25.742" y1="34.781" y2="1.178" gradientUnits="userSpaceOnUse"><stop stop-color="#019C85"/><stop offset="1" stop-color="#BEDC7C"/></linearGradient><clipPath id="a"><path fill="#fff" d="M0 0h44v44H0z"/></clipPath></defs></svg>