<svg xmlns="http://www.w3.org/2000/svg" width="256" height="64" fill="none"><g clip-path="url(#a)"><mask id="b" width="256" height="64" x="0" y="0" maskUnits="userSpaceOnUse" style="mask-type:luminance"><path fill="#fff" d="M255.68 0H0v64h255.68V0Z"/></mask><g fill="currentColor" mask="url(#b)"><path fill-rule="evenodd" d="M36.894.416 49.13 14.92l2.854 26.802-21.595 22.694L5.263 41.648l12.65-32.19L36.895.416ZM19.011 11.93l10.091 10.66-10.32 14.968-10.816 2.474L19.011 11.93ZM8.42 41.907l19.18 17.38-8.797-19.754-10.383 2.374Zm12.49-2.377 9.721 21.833L48.91 42.156l-28-2.625Zm28.841-.58-2.37-22.264-15.262 6.131 17.633 16.133ZM30.586 21.354l16.02-6.435L36.383 2.797l-16.1 7.67 10.304 10.887Zm-.083 2.597 17.704 16.2-27.12-2.542 9.416-13.658Z" clip-rule="evenodd"/><path d="M128.647 50.714c-5.42 0-9.996-1.76-13.657-5.35-3.661-3.591-5.491-8.097-5.491-13.447s1.83-9.786 5.491-13.376c3.661-3.59 8.237-5.421 13.657-5.421 4.576 0 8.519 1.338 11.968 4.013 3.45 2.605 5.632 6.054 6.548 10.208h-6.407c-1.901-4.999-6.477-8.378-12.109-8.378-3.731 0-6.758 1.267-9.222 3.731-2.464 2.464-3.661 5.492-3.661 9.223 0 3.731 1.197 6.829 3.661 9.293 2.464 2.464 5.491 3.66 9.222 3.66 5.632 0 10.208-3.379 12.109-8.377h6.407c-.916 4.153-3.098 7.603-6.548 10.278-3.449 2.605-7.392 3.943-11.968 3.943ZM206.954 16.851c-2.464-2.464-5.703-3.731-9.715-3.731-5.984 0-10.349 2.464-12.954 7.462-2.042-4.716-6.547-7.462-12.25-7.462-5.209 0-9.152 1.971-11.756 5.984v-5.14h-6.055V49.87h6.055V28.538c0-5.703 3.942-9.575 9.856-9.575 5.632 0 9.292 3.731 9.292 9.434v21.472h6.055V28.538c0-5.703 3.942-9.575 9.856-9.575 5.632 0 9.293 3.731 9.293 9.434v21.472h6.054V26.707c0-4.153-1.267-7.392-3.731-9.856Z"/><path fill-rule="evenodd" d="M255.435 34.24c.065-.835.125-1.609.125-2.323 0-5.35-1.831-9.786-5.492-13.376-3.59-3.59-8.166-5.421-13.587-5.421-5.421 0-9.997 1.83-13.657 5.42-3.591 3.591-5.421 8.026-5.421 13.377 0 5.35 1.83 9.856 5.421 13.446 3.66 3.59 8.236 5.35 13.657 5.35 8.73 0 15.77-4.927 18.375-12.32h-6.688c-1.901 4.013-6.336 6.759-11.687 6.759-3.238 0-6.054-.986-8.377-2.957-2.324-1.971-3.732-4.576-4.224-7.744h31.539l.016-.211Zm-6.352-5.21H223.95c1.197-6.195 6.125-10.348 12.531-10.348 6.407 0 11.475 4.224 12.602 10.348ZM104.269 13.965H76.954v5.843h21.26v7.04h-10.7c-3.731 0-6.83 1.126-9.293 3.45-2.464 2.252-3.66 5.068-3.66 8.448 0 3.45 1.196 6.265 3.66 8.588 2.464 2.253 5.561 3.38 9.293 3.38 4.857 0 9.081-2.112 11.334-5.492v4.647h5.421V13.965Zm-6.055 24.147c0 4.224-4.012 7.11-9.926 7.11-4.294 0-7.462-2.745-7.462-6.477 0-3.66 3.168-6.406 7.462-6.406h9.927v5.773Z" clip-rule="evenodd"/></g></g><defs><clipPath id="a"><path fill="#fff" d="M0 0h255.68v64H0z"/></clipPath></defs></svg>