<svg xmlns="http://www.w3.org/2000/svg" width="44" height="44" fill="none"><g clip-path="url(#a)"><mask id="b" width="44" height="45" x="0" y="0" maskUnits="userSpaceOnUse" style="mask-type:luminance"><path fill="#fff" d="M44 .001H0v44h44v-44Z"/></mask><g mask="url(#b)"><path fill="url(#c)" fill-rule="evenodd" d="m25.365.286 8.411 9.972 1.962 18.426-14.846 15.602L3.618 28.633l8.698-22.13L25.365.286ZM13.07 8.202l6.938 7.329-7.095 10.29-7.436 1.701 7.593-19.32Zm-7.28 20.61 13.186 11.95-6.048-13.582-7.139 1.632Zm8.586-1.634 6.684 15.01 12.566-13.206-19.25-1.804Zm19.829-.399-1.63-15.306-10.492 4.215 12.122 11.091ZM21.028 14.681l11.014-4.424-7.03-8.334-11.069 5.274 7.085 7.484Zm-.057 1.786 12.171 11.137-18.644-1.748 6.473-9.39Z" clip-rule="evenodd"/></g></g><defs><linearGradient id="c" x1="19.678" x2="19.678" y1=".286" y2="44.286" gradientUnits="userSpaceOnUse"><stop stop-color="#FFAC0B"/><stop offset="1" stop-color="#0B99FF"/></linearGradient><clipPath id="a"><path fill="#fff" d="M0 0h44v44H0z"/></clipPath></defs></svg>