<svg xmlns="http://www.w3.org/2000/svg" width="161" height="64" fill="none"><g fill="currentColor" clip-path="url(#a)"><path d="M140.853 38.02c0 6.188-4.643 10.858-10.734 10.858-6.03 0-10.674-4.67-10.674-10.857 0-6.187 4.644-10.858 10.674-10.858 6.091 0 10.734 4.67 10.734 10.858ZM41.555 38.02c0 6.188-4.644 10.858-10.734 10.858-6.031 0-10.675-4.67-10.675-10.857 0-6.187 4.644-10.858 10.675-10.858 6.09 0 10.734 4.67 10.734 10.858Z"/><path fill-rule="evenodd" d="M10.1 0A9.6 9.6 0 0 0 .5 9.6v44.8a9.6 9.6 0 0 0 9.6 9.6h140.8a9.6 9.6 0 0 0 9.6-9.6V9.6a9.6 9.6 0 0 0-9.6-9.6H10.1Zm136 22.857h-5.247v5.216c-2.412-3.7-6.271-6.005-11.397-6.005-8.383 0-15.257 6.976-15.257 15.953s6.874 15.952 15.257 15.952c5.126 0 8.985-2.304 11.397-6.005v5.217h5.247V22.857ZM99.36 53.973c-9.106 0-15.86-6.975-15.86-15.952s6.754-15.953 15.86-15.953c5.97 0 11.036 3.154 13.327 7.946l-4.402 2.548c-1.508-3.215-4.885-5.338-8.925-5.338-6.03 0-10.614 4.67-10.614 10.797 0 6.065 4.583 10.736 10.614 10.736 4.101 0 7.417-2.123 9.106-5.277l4.462 2.608c-2.532 4.731-7.658 7.885-13.568 7.885ZM72.842 13.82c0 1.94 1.568 3.518 3.558 3.518 1.93 0 3.498-1.577 3.498-3.518 0-1.941-1.568-3.579-3.498-3.579-1.99 0-3.558 1.638-3.558 3.579Zm.905 9.038v30.328h5.246V22.857h-5.246Zm-4.403 5.095h-8.02v16.437c0 4.437 2.458 4.323 7.427 4.092l.593-.028v4.732c-9.046 1.213-13.267-1.214-13.267-8.796V27.952h-5.97v-5.096h5.97v-6.914l5.247-1.577v8.492h8.02v5.095Zm-22.543-5.095h-5.246v5.216c-2.412-3.7-6.272-6.005-11.398-6.005-8.382 0-15.257 6.976-15.257 15.953s6.875 15.952 15.257 15.952c5.126 0 8.986-2.304 11.398-6.005v5.217H46.8V22.857Z" clip-rule="evenodd"/></g><defs><clipPath id="a"><path fill="#fff" d="M.5 0h160v64H.5z"/></clipPath></defs></svg>