<svg xmlns="http://www.w3.org/2000/svg" width="316" height="64" fill="none"><path stroke="currentColor" stroke-width="2.286" d="M53.858 1.143h-43.6c-5.033 0-9.113 4.073-9.113 9.097v43.52c0 5.024 4.08 9.097 9.114 9.097h43.599c5.033 0 9.113-4.073 9.113-9.097V10.24c0-5.024-4.08-9.097-9.113-9.097Z"/><path fill="currentColor" fill-rule="evenodd" d="M34.742 9.143a.72.72 0 0 1 .72.719v8.716c0 .358.264.66.617.723 1.139.205 2.24.52 3.29.936.49.195 1.044-.156 1.044-.684V16.04a.72.72 0 0 1 .72-.72h3.51a.72.72 0 0 1 .721.72v12.596c0 .644-.8.98-1.296.567a17.278 17.278 0 0 0-11.082-3.998 17.277 17.277 0 0 0-11.08 3.998c-.497.412-1.297.076-1.297-.568V16.04a.72.72 0 0 1 .721-.719h3.51a.72.72 0 0 1 .72.72v3.513c0 .528.554.878 1.046.683 1.05-.415 2.15-.73 3.289-.935a.741.741 0 0 0 .616-.723V9.862a.72.72 0 0 1 .72-.72h3.511Zm-1.755 45.714c6.836 0 12.377-5.532 12.377-12.355 0-6.824-5.541-12.356-12.377-12.356s-12.378 5.532-12.378 12.356c0 6.823 5.542 12.355 12.378 12.355Z" clip-rule="evenodd"/><path fill="currentColor" d="M91.182 48.457c-2.381 0-4.58-.411-6.595-1.234a16.09 16.09 0 0 1-5.266-3.566c-1.466-1.524-2.61-3.322-3.435-5.394-.824-2.103-1.237-4.389-1.237-6.857 0-2.469.397-4.724 1.191-6.766.825-2.042 1.97-3.81 3.435-5.303a14.97 14.97 0 0 1 5.267-3.474c2.015-.823 4.228-1.234 6.64-1.234 2.718 0 5.16.533 7.328 1.6 2.198 1.036 3.984 2.514 5.358 4.434 1.404 1.89 2.259 4.114 2.565 6.674h-6.87c-.397-2.347-1.359-4.114-2.885-5.303-1.527-1.219-3.343-1.828-5.45-1.828-1.862 0-3.511.442-4.946 1.325-1.404.884-2.504 2.164-3.297 3.84-.794 1.646-1.191 3.642-1.191 5.989 0 2.377.397 4.434 1.19 6.171.825 1.707 1.954 3.033 3.39 3.978 1.434.914 3.083 1.371 4.946 1.371 1.984 0 3.74-.594 5.266-1.783 1.527-1.188 2.52-2.956 2.977-5.303h6.961c-.397 2.56-1.297 4.8-2.702 6.72-1.404 1.89-3.19 3.353-5.358 4.389-2.168 1.036-4.595 1.554-7.282 1.554Zm30.183 0c-2.565 0-4.824-.503-6.778-1.508-1.924-1.036-3.435-2.469-4.534-4.298-1.069-1.859-1.603-3.992-1.603-6.4 0-2.407.534-4.51 1.603-6.308 1.099-1.798 2.61-3.2 4.534-4.206 1.954-1.006 4.213-1.508 6.778-1.508 2.595 0 4.854.502 6.777 1.508 1.955 1.006 3.466 2.408 4.534 4.206 1.069 1.798 1.603 3.9 1.603 6.308s-.549 4.541-1.648 6.4c-1.069 1.829-2.58 3.261-4.534 4.298-1.924 1.005-4.168 1.508-6.732 1.508Zm0-5.394c1.068 0 2.03-.274 2.885-.823.885-.549 1.588-1.326 2.106-2.331.52-1.036.779-2.27.779-3.703 0-2.103-.565-3.718-1.695-4.846-1.099-1.158-2.457-1.737-4.075-1.737-1.618 0-2.992.579-4.122 1.737-1.099 1.158-1.649 2.773-1.649 4.846 0 1.432.26 2.666.779 3.703.519 1.005 1.206 1.782 2.061 2.331a5.454 5.454 0 0 0 2.931.823ZM137.832 48V24.686h6.869V48h-6.869Zm-.229-26.423v-7.406h7.327v7.406h-7.327ZM150.175 48V24.686h6.732v5.485h.138V48h-6.87Zm16.258 0V33.554c0-1.28-.336-2.24-1.007-2.88-.641-.64-1.588-.96-2.84-.96-1.068 0-2.03.244-2.885.732a5.418 5.418 0 0 0-1.969 2.011c-.458.853-.687 1.86-.687 3.017l-.596-5.623c.764-1.706 1.878-3.062 3.344-4.068 1.496-1.036 3.327-1.554 5.495-1.554 2.595 0 4.58.731 5.954 2.194 1.374 1.432 2.061 3.367 2.061 5.806V48h-6.87Zm26.853.457c-2.381 0-4.579-.411-6.594-1.234a16.093 16.093 0 0 1-5.267-3.566c-1.466-1.524-2.611-3.322-3.435-5.394-.824-2.103-1.236-4.389-1.236-6.857 0-2.469.397-4.724 1.19-6.766.825-2.042 1.97-3.81 3.435-5.303a14.972 14.972 0 0 1 5.267-3.474c2.015-.823 4.228-1.234 6.64-1.234 2.718 0 5.16.533 7.328 1.6 2.198 1.036 3.984 2.514 5.358 4.434 1.405 1.89 2.26 4.114 2.565 6.674h-6.87c-.397-2.347-1.358-4.114-2.885-5.303-1.526-1.219-3.343-1.828-5.45-1.828-1.862 0-3.511.442-4.946 1.325-1.404.884-2.503 2.164-3.297 3.84-.794 1.646-1.191 3.642-1.191 5.989 0 2.377.397 4.434 1.191 6.171.824 1.707 1.954 3.033 3.389 3.978 1.435.914 3.083 1.371 4.946 1.371 1.984 0 3.74-.594 5.266-1.783 1.527-1.188 2.519-2.956 2.977-5.303h6.961c-.396 2.56-1.297 4.8-2.702 6.72-1.404 1.89-3.19 3.353-5.358 4.389-2.167 1.036-4.595 1.554-7.282 1.554ZM226.192 48c-.183-.67-.32-1.387-.412-2.149a33.694 33.694 0 0 1-.091-2.651h-.183V32.183c0-.945-.321-1.676-.962-2.194-.611-.549-1.527-.823-2.748-.823-1.16 0-2.092.198-2.794.594a2.833 2.833 0 0 0-1.328 1.737h-6.549c.305-2.103 1.389-3.84 3.252-5.211 1.862-1.372 4.411-2.057 7.648-2.057 3.358 0 5.923.746 7.693 2.24 1.77 1.493 2.657 3.641 2.657 6.445V43.2c0 .762.045 1.539.137 2.331.121.762.305 1.585.55 2.469h-6.87Zm-8.151.457c-2.321 0-4.168-.579-5.542-1.737-1.374-1.188-2.061-2.758-2.061-4.709 0-2.163.809-3.9 2.428-5.211 1.648-1.341 3.938-2.21 6.869-2.606l6.824-.96v3.977l-5.679.869c-1.221.183-2.122.518-2.702 1.006-.58.487-.87 1.158-.87 2.011 0 .762.275 1.341.824 1.737.55.396 1.283.595 2.198.595 1.435 0 2.657-.381 3.664-1.143 1.008-.793 1.512-1.707 1.512-2.743l.641 3.657c-.672 1.737-1.695 3.048-3.069 3.931-1.374.884-3.053 1.326-5.037 1.326Zm28.423 0c-3.421 0-6.137-.686-8.152-2.057-2.015-1.371-3.114-3.261-3.297-5.669h6.137c.151 1.037.671 1.829 1.557 2.378.916.518 2.166.777 3.755.777 1.434 0 2.473-.198 3.114-.595.671-.426 1.008-1.02 1.008-1.782 0-.58-.199-1.021-.596-1.326-.366-.335-1.053-.61-2.06-.823l-3.756-.777c-2.78-.58-4.824-1.448-6.137-2.606-1.314-1.188-1.969-2.712-1.969-4.571 0-2.256.87-4.008 2.611-5.257 1.74-1.28 4.167-1.92 7.281-1.92 3.083 0 5.542.624 7.374 1.874 1.832 1.219 2.839 2.926 3.022 5.12h-6.137c-.123-.793-.549-1.387-1.282-1.783-.733-.427-1.772-.64-3.114-.64-1.223 0-2.139.183-2.748.549-.581.335-.87.822-.87 1.462 0 .549.243.99.733 1.326.487.305 1.296.58 2.427.823l4.213.869c2.35.487 4.122 1.401 5.313 2.742 1.22 1.31 1.832 2.865 1.832 4.663 0 2.286-.903 4.069-2.702 5.349-1.773 1.25-4.292 1.874-7.557 1.874Zm24.637.046c-2.993 0-5.221-.716-6.687-2.149-1.435-1.462-2.152-3.672-2.152-6.628V19.474l6.869-2.56v23.04c0 1.036.289 1.814.871 2.332.579.518 1.479.777 2.702.777.458 0 .883-.046 1.282-.137.396-.092.792-.198 1.191-.32v5.211c-.399.213-.962.381-1.695.503-.703.122-1.497.183-2.381.183Zm-13.19-18.606v-5.211h17.266v5.211h-17.266ZM279.294 48V15.086h6.869V48h-6.869Zm23.333.457c-2.594 0-4.854-.503-6.778-1.508-1.923-1.036-3.418-2.469-4.488-4.298-1.037-1.828-1.557-3.931-1.557-6.308 0-2.408.52-4.51 1.557-6.309a11.045 11.045 0 0 1 4.443-4.251c1.893-1.036 4.092-1.554 6.594-1.554 2.412 0 4.505.487 6.275 1.462 1.77.976 3.144 2.332 4.121 4.069.978 1.737 1.466 3.779 1.466 6.126 0 .487-.016.944-.046 1.371-.03.396-.075.777-.137 1.143h-20.243v-4.526h14.701l-1.19.823c0-1.89-.458-3.276-1.374-4.16-.887-.914-2.107-1.371-3.664-1.371-1.802 0-3.206.61-4.214 1.828-.977 1.22-1.465 3.048-1.465 5.486 0 2.377.488 4.145 1.465 5.303 1.008 1.158 2.503 1.737 4.489 1.737 1.099 0 2.044-.183 2.839-.549.795-.365 1.39-.96 1.786-1.782h6.457c-.762 2.255-2.076 4.038-3.938 5.348-1.832 1.28-4.197 1.92-7.099 1.92Z"/></svg>