<svg xmlns="http://www.w3.org/2000/svg" width="276" height="64" fill="none"><g clip-path="url(#a)"><mask id="b" width="276" height="64" x="0" y="0" maskUnits="userSpaceOnUse" style="mask-type:luminance"><path fill="#fff" d="M275.84 0H0v64h275.84V0Z"/></mask><g fill="currentColor" mask="url(#b)"><path fill-rule="evenodd" d="M59.203 48.852A32 32 0 1 0 4.82 15.108a32 32 0 0 0 54.37 33.764l.01.002.003-.022ZM32.533 3.845c-4.103 7.848-7.028 9.412-9.202 10.555-1.942 1.034-3.222 1.715-5.14 10.022-1.73 7.5-6.62 12.995-13.313 15.151a28.16 28.16 0 0 0 3.991 8.488c2.205-5.118 8.504-9.605 17.768-12.455 5.597-1.724 5.395-4.566 4.403-10.828-.397-2.512-.845-5.364-.64-8.276.198-2.796 1.504-5.76 3.58-8.124a15.851 15.851 0 0 1 4.818-3.705 28.158 28.158 0 0 0-6.265-.828ZM16.303 55.38a28.158 28.158 0 0 1-4.445-3.7c.431-5.66 8.42-10.1 15.912-12.406 9.02-2.775 7.987-9.335 7.075-15.095-.384-2.422-.781-4.928-.605-7.401.426-6.02 6.206-9.197 10.309-9.987a28.156 28.156 0 0 1 3.5 2.07c-2.986 2.292-7.324 7.185-7.089 16.137.067 2.584.895 5.037 1.77 7.633l.003.006c1.869 5.55 3.801 11.286-.896 19.869-2.169 3.973-4.058 5.538-6.833 7.493a28.165 28.165 0 0 1-3.789.15c3.068-2.823 6.652-6.959 6.263-10.61-.15-1.392-.883-3.299-3.747-4.573-2.864-1.273-5.674-1.315-8.355-.124-4.547 2.022-7.553 7.227-9.072 10.538ZM44.8 24.909c-.218-8.233 4.204-12.141 6.356-13.55a28.166 28.166 0 0 1 5.326 6.726c-2.81 1.538-5.922 4.553-5.922 9.435 0 3.453 1.424 6.506 2.816 9.453 1.433 3.074 2.797 6.002 2.8 9.467a28.157 28.157 0 0 1-13.298 11.534c.776-1.007 1.543-2.184 2.325-3.612 5.49-10.022 3.104-17.153 1.187-22.885l-.019-.056c-.816-2.416-1.52-4.503-1.571-6.512Zm13.774 16.41c-.604-2.024-1.466-3.88-2.28-5.633l-.032-.067c-1.286-2.752-2.502-5.353-2.502-8.099 0-3.58 2.343-5.57 4.143-6.565l.113.269a28.158 28.158 0 0 1 .558 20.094ZM19.64 57.302a28.129 28.129 0 0 0 6.377 2.214c3.516-2.758 7.9-7.24 7.65-9.571l-.001-.002c-.026-.235-.093-.851-1.488-1.47-1.853-.823-3.565-.864-5.235-.122-3.365 1.492-5.945 5.91-7.303 8.951ZM4.096 35.789c5.242-1.821 8.954-6.157 10.352-12.221 2.192-9.526 4.112-10.976 7.078-12.547 1.63-.861 3.573-1.902 6.47-6.89A28.193 28.193 0 0 0 3.84 32c0 1.272.086 2.538.256 3.79Z" clip-rule="evenodd"/><path d="m235.668 35.132-10.59 12.09v.068h15.817v1.607h-18.257v-1.414l11.82-13.552c1.868-2.11 3.872-4.404 3.872-7.83 0-3.195-2.381-6.283-6.97-6.283-4.588 0-7.076 3.262-7.076 6.553v.116h-1.791V26.4c0-3.95 2.933-8.16 8.887-8.16 5.759 0 8.827 3.707 8.827 7.957 0 3.662-2.363 6.408-4.429 8.807l-.11.128ZM101.89 48.974H82.24V18.869h19.65v5.16H88.57v7.318h12.526v4.81H88.57v7.657h13.32v5.16Z"/><path fill-rule="evenodd" d="m105.346 48.974 9.961-30.105h7.589l9.864 30.105h-6.776l-2.226-7.473h-9.787l-2.255 7.473h-6.37Zm13.407-24.113-3.533 11.935h7.289l-3.485-11.935h-.271ZM160.115 28.481c0-5.42-3.484-9.612-10.715-9.612h-12.265v30.105h6.282V37.9h4.966l5.227 11.074h7.106l-6.05-12.023a8.888 8.888 0 0 0 5.449-8.47Zm-11.732 4.724h-4.966v-9.418h5.054c2.904 0 5.072 1.606 5.072 4.84 0 2.99-1.985 4.578-5.16 4.578Z" clip-rule="evenodd"/><path d="M171.703 24.164h-8.441v-5.295h23.27v5.295h-8.45v24.81h-6.379v-24.81ZM209.387 30.998h-12.129V18.87h-6.399v30.105h6.399v-12.73h12.129v12.73h6.398V18.869h-6.398v12.13ZM249.278 45.828a1.721 1.721 0 0 0-1.583 2.376 1.697 1.697 0 0 0 1.583 1.041 1.715 1.715 0 0 0 1.723-1.694 1.746 1.746 0 0 0-1.723-1.723Z"/><path fill-rule="evenodd" d="M256.315 32.905c0-9.467 3.882-14.665 9.777-14.665 5.876 0 9.748 5.227 9.748 14.665v2.052c0 9.467-3.843 14.646-9.748 14.646-5.905 0-9.777-5.179-9.777-14.646v-2.052Zm9.777 15.091c4.676 0 7.918-4.52 7.918-12.99v-2.169c0-8.47-3.213-12.97-7.918-12.97-4.704 0-7.947 4.5-7.947 12.97v2.169c0 8.47 3.272 12.99 7.947 12.99Z" clip-rule="evenodd"/></g></g><defs><clipPath id="a"><path fill="#fff" d="M0 0h275.84v64H0z"/></clipPath></defs></svg>