<svg xmlns="http://www.w3.org/2000/svg" width="272" height="64" fill="none"><g clip-path="url(#a)"><mask id="b" width="272" height="64" x="0" y="0" maskUnits="userSpaceOnUse" style="mask-type:luminance"><path fill="#fff" d="M271.36 0H0v64h271.36V0Z"/></mask><g fill="currentColor" mask="url(#b)"><path d="M32.173 0C13.066 0 0 12.16 0 32.173 0 51.28 13.066 64 32.173 64S64 51.28 64 32.173C64 12.16 51.28 0 32.173 0Zm19.005 51.178a22.089 22.089 0 0 1-4.138 3.238V28.16l-5.76-3.2v32a29.877 29.877 0 0 1-6.4 1.168v-42.08l-5.76-3.2v45.26a30.42 30.42 0 0 1-6.08-1.132V26.88l-5.76 3.2v24.38C10.013 50.132 5.76 42.3 5.76 32.16c0-8.138 2.486-14.874 7.194-19.482C17.58 8.157 24.227 5.76 32.173 5.76c7.945 0 14.48 2.387 19.027 6.9 4.611 4.588 7.04 11.337 7.04 19.52 0 7.82-2.442 14.38-7.062 18.998ZM200.304 17.92h6.394l-.058 28.8h-6.393l.057-28.8ZM203.472 12.448c-1.037 0-1.939-.365-2.707-1.094-.73-.768-1.095-1.67-1.095-2.708 0-1.036.365-1.92 1.095-2.65.768-.729 1.67-1.094 2.707-1.094s1.92.365 2.65 1.095c.768.73 1.152 1.613 1.152 2.65 0 1.036-.384 1.939-1.152 2.707-.73.73-1.613 1.094-2.65 1.094ZM213.091 46.72h6.452V31.686c0-2.726.595-4.819 1.785-6.278 1.191-1.46 2.861-2.17 5.011-2.131 1.268 0 2.362.25 3.284.749.96.499 1.689 1.382 2.188 2.65.538 1.228.807 2.995.807 5.299V46.72h6.451V30.247c0-4.416-.96-7.68-2.88-9.793-1.882-2.15-4.57-3.225-8.064-3.225-2.266 0-4.224.576-5.875 1.728-1.108.747-2.043 1.737-2.806 2.968l-.305-4.005h-6.048v28.8Z"/><path fill-rule="evenodd" d="M249.808 45.51c2.189 1.268 4.685 1.901 7.488 1.901 2.189 0 4.128-.307 5.818-.921 1.728-.615 3.206-1.498 4.435-2.65a14.55 14.55 0 0 0 3.111-4.032l-5.933-2.534a8.31 8.31 0 0 1-2.592 3.053c-1.114.767-2.535 1.151-4.263 1.151-1.574 0-3.014-.345-4.32-1.036-1.267-.73-2.284-1.767-3.052-3.11-.545-1.003-.886-2.155-1.024-3.457h21.76c0-3.456-.615-6.432-1.844-8.928-1.228-2.496-2.88-4.396-4.953-5.702-2.035-1.344-4.339-2.016-6.912-2.016-2.842 0-5.376.653-7.603 1.958-2.189 1.267-3.917 3.034-5.184 5.3-1.268 2.265-1.901 4.876-1.901 7.833s.614 5.568 1.843 7.834c1.267 2.265 2.976 4.05 5.126 5.356Zm14.334-16.761c-.1-.364-.212-.71-.337-1.037-.576-1.613-1.421-2.803-2.534-3.571-1.075-.806-2.4-1.21-3.975-1.21-1.651 0-3.072.365-4.262 1.095-1.19.73-2.093 1.805-2.707 3.225a9.35 9.35 0 0 0-.511 1.498h14.326Z" clip-rule="evenodd"/><path d="M187.383 6.4v40.32h6.451V6.4h-6.451Z"/><path fill-rule="evenodd" d="m175.297 46.72-.231-4.3a11.094 11.094 0 0 1-2.937 3.148c-1.728 1.229-3.802 1.843-6.221 1.843-2.611 0-4.896-.614-6.854-1.843-1.92-1.267-3.437-3.034-4.551-5.3-1.075-2.265-1.612-4.914-1.612-7.948 0-3.072.537-5.722 1.612-7.949 1.114-2.265 2.631-4.013 4.551-5.241 1.958-1.268 4.243-1.901 6.854-1.901 2.419 0 4.493.633 6.221 1.9a10.67 10.67 0 0 1 2.88 3.009V6.4h6.394v40.32h-6.106Zm-1.267-9.62c.653-1.382.979-2.975.979-4.78 0-1.805-.326-3.398-.979-4.78-.615-1.383-1.498-2.458-2.65-3.226-1.113-.768-2.419-1.152-3.917-1.152-1.536 0-2.899.384-4.089 1.152-1.191.768-2.131 1.843-2.823 3.225-.652 1.383-.998 2.976-1.036 4.781.038 1.805.384 3.398 1.036 4.78.692 1.383 1.632 2.478 2.823 3.284 1.229.768 2.611 1.152 4.147 1.152 1.459 0 2.746-.384 3.859-1.152 1.152-.806 2.035-1.9 2.65-3.283Z" clip-rule="evenodd"/><path d="M142.043 6.4v40.32h6.451V6.4h-6.451Z"/><path fill-rule="evenodd" d="M122.974 47.411c-2.88 0-5.453-.633-7.718-1.9a14.04 14.04 0 0 1-5.242-5.357c-1.267-2.266-1.901-4.877-1.901-7.834s.615-5.568 1.843-7.834c1.268-2.265 3.015-4.032 5.242-5.299 2.227-1.305 4.781-1.958 7.661-1.958s5.433.653 7.661 1.958c2.227 1.267 3.955 3.034 5.184 5.3 1.267 2.265 1.9 4.876 1.9 7.833s-.614 5.568-1.843 7.834a13.636 13.636 0 0 1-5.184 5.356c-2.227 1.268-4.761 1.901-7.603 1.901Zm0-5.933c1.574 0 2.976-.384 4.205-1.151a8.35 8.35 0 0 0 2.88-3.226c.691-1.383 1.037-2.976 1.037-4.781 0-1.805-.365-3.38-1.094-4.723-.692-1.383-1.652-2.458-2.881-3.226-1.229-.806-2.649-1.21-4.262-1.21-1.613 0-3.034.385-4.263 1.153-1.228.768-2.188 1.843-2.88 3.225-.691 1.383-1.036 2.976-1.036 4.781 0 1.805.345 3.398 1.036 4.78.73 1.345 1.709 2.42 2.938 3.227 1.267.767 2.707 1.151 4.32 1.151ZM83.42 58.47c1.651.346 3.495.519 5.53.519 2.957 0 5.549-.595 7.776-1.786 2.227-1.152 3.955-2.88 5.184-5.184 1.229-2.265 1.843-5.03 1.843-8.294V17.92h-6.451v4.644c-.86-1.43-1.935-2.594-3.226-3.492-1.728-1.229-3.763-1.843-6.105-1.843-2.612 0-4.896.614-6.855 1.843-1.92 1.229-3.436 2.938-4.55 5.127-1.075 2.188-1.613 4.78-1.613 7.775 0 2.804.538 5.28 1.613 7.43 1.114 2.113 2.63 3.764 4.55 4.954 1.959 1.19 4.243 1.786 6.855 1.786 2.342 0 4.377-.576 6.105-1.728a11.178 11.178 0 0 0 3.226-3.346v2.828c0 2.15-.365 3.916-1.095 5.299-.73 1.382-1.747 2.4-3.052 3.053-1.306.69-2.784 1.036-4.436 1.036-1.535 0-2.918-.153-4.147-.46-1.228-.308-2.304-.672-3.225-1.095a45.666 45.666 0 0 1-2.131-.979l-2.477 5.184c.614.422 1.478.864 2.592 1.325 1.113.46 2.477.864 4.09 1.21Zm10.138-18.95c-1.075.768-2.343 1.152-3.802 1.152-1.536 0-2.899-.384-4.09-1.152-1.19-.768-2.13-1.805-2.822-3.11-.652-1.344-.979-2.88-.979-4.608 0-1.767.327-3.303.98-4.608.69-1.344 1.612-2.381 2.764-3.11 1.19-.769 2.554-1.153 4.09-1.153 1.459 0 2.745.384 3.859 1.152 1.113.73 1.977 1.767 2.592 3.11.614 1.306.921 2.842.921 4.609 0 1.728-.307 3.264-.921 4.608-.615 1.305-1.479 2.342-2.592 3.11Z" clip-rule="evenodd"/></g></g><defs><clipPath id="a"><path fill="#fff" d="M0 0h271.36v64H0z"/></clipPath></defs></svg>