<svg xmlns="http://www.w3.org/2000/svg" width="270" height="64" fill="none"><g fill="currentColor" clip-path="url(#a)"><path d="M32.034 31.132s-.438-5.459-.438-12.736c-.542-5.452-1.657-10.644-4.604-10.904-1.054-.093-2.019.74-2.86 2.33C25.704 4.385 32.034 0 32.034 0s6.33 4.385 7.901 9.822c-.84-1.59-1.806-2.423-2.859-2.33-2.947.26-4.13 5.452-4.672 10.904 0 7.277-.37 12.736-.37 12.736ZM31.966 32.868s.438 5.458.438 12.736c.542 5.452 1.657 10.644 4.604 10.904 1.053.093 2.018-.74 2.86-2.33C38.295 59.614 31.965 64 31.965 64s-6.33-4.386-7.902-9.822c.841 1.59 1.806 2.423 2.86 2.33 2.947-.26 4.13-5.452 4.672-10.904 0-7.278.37-12.736.37-12.736ZM32.869 32.034s5.458-.438 12.735-.438c5.452-.542 10.644-1.657 10.904-4.604.093-1.054-.74-2.019-2.33-2.86C59.615 25.704 64 32.035 64 32.035s-4.385 6.33-9.822 7.901c1.59-.84 2.423-1.805 2.33-2.859-.26-2.947-5.452-4.13-10.904-4.672-7.277 0-12.735-.37-12.735-.37ZM31.132 31.966s-5.459.438-12.736.438c-5.452.542-10.644 1.657-10.904 4.604-.093 1.053.74 2.019 2.33 2.86C4.385 38.295 0 31.965 0 31.965s4.385-6.33 9.822-7.902c-1.59.841-2.423 1.806-2.33 2.86.26 2.947 5.452 4.13 10.904 4.672 7.277 0 12.736.37 12.736.37ZM32.638 31.41s3.55-4.17 8.696-9.316c3.471-4.238 6.354-8.698 4.455-10.965-.68-.81-1.95-.904-3.67-.374 4.956-2.733 12.532-1.358 12.532-1.358s1.375 7.576-1.358 12.532c.53-1.72.437-2.99-.374-3.67-2.268-1.9-6.775.935-11.014 4.407-5.145 5.146-9.267 8.744-9.267 8.744ZM31.362 32.59s-3.55 4.17-8.696 9.315c-3.472 4.238-6.355 8.698-4.455 10.966.68.81 1.95.904 3.67.374-4.956 2.733-12.533 1.358-12.533 1.358s-1.375-7.576 1.358-12.532c-.53 1.72-.436 2.99.375 3.67 2.267 1.9 6.775-.935 11.013-4.407 5.146-5.147 9.268-8.744 9.268-8.744ZM32.59 32.638s4.17 3.55 9.315 8.695c4.238 3.472 8.698 6.355 10.966 4.456.81-.68.904-1.95.374-3.67 2.733 4.956 1.358 12.532 1.358 12.532s-7.576 1.375-12.532-1.358c1.719.53 2.99.437 3.67-.374 1.9-2.267-.935-6.776-4.407-11.014-5.146-5.146-8.744-9.267-8.744-9.267ZM31.41 31.362s-4.17-3.55-9.315-8.696c-4.238-3.472-8.698-6.354-10.966-4.454-.81.679-.904 1.95-.374 3.669C8.022 16.925 9.397 9.348 9.397 9.348s7.576-1.374 12.532 1.358c-1.719-.53-2.99-.436-3.67.375-1.9 2.268.935 6.776 4.407 11.014 5.146 5.146 8.744 9.267 8.744 9.267ZM246.956 42.368v-.24l2.064-2.16h.24c2.304 2.832 5.136 4.8 9.168 4.8 4.368 0 7.152-2.304 7.152-5.376 0-3.984-4.656-5.232-9.696-7.248-3.216-1.296-7.584-3.264-7.584-8.208 0-4.848 4.128-8.352 9.984-8.352 4.464 0 7.92 2.016 10.032 4.8v.24l-2.16 2.016h-.24c-1.824-2.256-4.32-3.888-7.632-3.888-3.648 0-6.432 1.968-6.432 4.848s2.736 4.176 6.048 5.472c4.992 1.968 11.232 3.888 11.232 10.176 0 5.28-4.416 8.688-10.512 8.688-5.136 0-9.264-2.4-11.664-5.568ZM237.571 44.576l.816 2.448-.144.24c-.72.48-1.392.672-2.544.672-2.208 0-4.512-1.68-6.624-4.128l-9.12-10.56-2.928 3.072v11.04h-3.456v-31.2h3.456v15.696l14.976-15.696h4.176l.144.192-13.968 14.592 9.504 11.04c1.872 2.16 2.928 2.832 4.08 2.832.576 0 1.008-.096 1.392-.336l.24.096ZM183.266 47.936c-9.312 0-16.464-6.912-16.464-16.176s7.152-16.176 16.464-16.176c9.312 0 16.464 6.912 16.464 16.176s-7.152 16.176-16.464 16.176Zm0-3.168c7.344 0 12.912-5.424 12.912-13.008 0-7.584-5.568-13.008-12.912-13.008-7.344 0-12.912 5.424-12.912 13.008 0 7.584 5.568 13.008 12.912 13.008ZM138.8 47.936c-9.312 0-16.464-6.912-16.464-16.176s7.152-16.176 16.464-16.176c9.312 0 16.464 6.912 16.464 16.176s-7.152 16.176-16.464 16.176Zm0-3.168c7.344 0 12.912-5.424 12.912-13.008 0-7.584-5.568-13.008-12.912-13.008-7.344 0-12.912 5.424-12.912 13.008 0 7.584 5.568 13.008 12.912 13.008ZM105.075 16.16h3.456v31.2h-3.456V33.152h-18.96V47.36H82.66v-31.2h3.456v13.92h18.96V16.16Z"/></g><defs><clipPath id="a"><path fill="#fff" d="M0 0h269.76v64H0z"/></clipPath></defs></svg>