<svg xmlns="http://www.w3.org/2000/svg" width="200" height="158" fill="none"><rect width="189.05" height="44.766" x="5.475" y=".475" fill="#000" fill-opacity=".04" stroke="#9E9FA2" stroke-width=".95" rx="3.325"/><rect width="199" height="47.122" x=".5" y="55.439" fill="#000" fill-opacity=".04" stroke="#9E9FA2" rx="3.5"/><rect width="189.05" height="44.766" x="5.475" y="112.759" fill="#000" fill-opacity=".04" stroke="#9E9FA2" stroke-width=".95" rx="3.325"/><path fill="#000" fill-opacity=".08" stroke="#9E9FA2" stroke-width=".95" d="M27.8 8.094c8.131 0 14.725 6.61 14.725 14.764 0 8.155-6.593 14.763-14.725 14.764-8.131 0-14.725-6.61-14.725-14.764 0-8.155 6.594-14.764 14.725-14.764Z"/><path fill="#000" fill-opacity=".08" stroke="#9E9FA2" d="M24 63.46c8.56 0 15.5 6.956 15.5 15.54S32.56 94.54 24 94.54c-8.56 0-15.5-6.956-15.5-15.54S15.44 63.46 24 63.46Z"/><path fill="#000" fill-opacity=".08" stroke="#9E9FA2" stroke-width=".95" d="M27.8 120.378c8.131.001 14.725 6.609 14.725 14.764s-6.593 14.764-14.725 14.764c-8.131 0-14.725-6.609-14.725-14.764s6.594-14.764 14.725-14.764Z"/><rect width="135.85" height="29.527" x="51.075" y="8.095" fill="#000" fill-opacity=".08" stroke="#9E9FA2" stroke-width=".95" rx="3.325"/><rect width="143" height="31.081" x="48.5" y="63.459" fill="#000" fill-opacity=".08" stroke="#9E9FA2" rx="3.5"/><rect width="135.85" height="29.527" x="51.075" y="120.379" fill="#000" fill-opacity=".08" stroke="#9E9FA2" stroke-width=".95" rx="3.325"/></svg>