<svg xmlns="http://www.w3.org/2000/svg" width="200" height="200" fill="none"><path fill="#fff" fill-opacity=".04" d="M2.06 27.282A24.387 24.387 0 0 1 26.447 2.895H172.77a24.39 24.39 0 0 1 24.388 24.387v146.324a24.388 24.388 0 0 1-24.388 24.387H26.447A24.385 24.385 0 0 1 2.06 173.606V27.282Z"/><path fill="#fff" fill-opacity=".08" fill-rule="evenodd" d="M38.64 112.638H2.06v62.197c.26 6.924 4.94 21.175 23.062 23.173h148.172c7.01-.122 21.597-4.782 23.864-22.453v-62.917h-36.581l-36.581 36.581H75.221l-36.58-36.581Z" clip-rule="evenodd"/><path fill="#3D3E45" d="M195.207 27.283A22.434 22.434 0 0 0 172.77 4.847H26.447A22.437 22.437 0 0 0 4.01 27.283v146.323a22.435 22.435 0 0 0 22.436 22.436H172.77a22.434 22.434 0 0 0 15.865-6.572 22.433 22.433 0 0 0 6.572-15.864V27.283Zm3.902 146.323a26.335 26.335 0 0 1-7.715 18.624 26.334 26.334 0 0 1-18.624 7.714H26.447A26.335 26.335 0 0 1 .109 173.606V27.283A26.34 26.34 0 0 1 26.447.944H172.77a26.337 26.337 0 0 1 26.339 26.339v146.323Z"/><path fill="#3D3E45" d="M38.64 110.687a1.95 1.95 0 0 1 1.38.571l36.01 36.009h47.158l36.009-36.009.143-.129a1.949 1.949 0 0 1 1.237-.442h36.581l.199.01a1.951 1.951 0 0 1 0 3.881l-.199.011h-35.773l-36.01 36.009a1.95 1.95 0 0 1-1.379.571H75.221a1.95 1.95 0 0 1-1.379-.571l-36.01-36.009H2.06a1.951 1.951 0 0 1 0-3.902h36.58Z"/></svg>