<svg xmlns="http://www.w3.org/2000/svg" width="44" height="44" fill="none"><g clip-path="url(#a)"><mask id="b" width="44" height="45" x="0" y="0" maskUnits="userSpaceOnUse" style="mask-type:luminance"><path fill="#fff" d="M44 .001H0v44h44v-44Z"/></mask><g mask="url(#b)"><path fill="url(#c)" d="M14.375 17.313A8.592 8.592 0 0 1 26.628 6.27a8.594 8.594 0 0 1 2.927 11.62l-6.934 12.03 2.079 3.601 7.982-13.824a12.194 12.194 0 0 0-21.12-12.195 12.053 12.053 0 0 0-1.026 9.92c.556-.07 1.116-.105 1.677-.106l2.162-.004Z"/><path fill="url(#d)" d="M42.348 24.308a12.057 12.057 0 0 0-8.201-5.872 13.568 13.568 0 0 1-.746 1.512l-1.087 1.88a8.593 8.593 0 1 1-7.968 12.875l-6.924-11.99h-4.155l7.96 13.79c.273.47.576.923.908 1.355l.066.086a12.043 12.043 0 0 0 9.585 4.655 12.194 12.194 0 0 0 10.56-18.29h.002Z"/><path fill="url(#e)" d="M19.393 35.126A8.592 8.592 0 0 1 4.772 26.11a8.595 8.595 0 0 1 7.44-4.299h13.876l2.072-3.599H12.212a12.194 12.194 0 1 0 0 24.387 12.048 12.048 0 0 0 9.207-4.193c-.355-.46-.68-.943-.972-1.446l-1.054-1.834Z"/></g></g><defs><linearGradient id="c" x1="14.232" x2="32.037" y1="3.303" y2="25.085" gradientUnits="userSpaceOnUse"><stop stop-color="#B03B83"/><stop offset=".56" stop-color="#E72E6C"/><stop offset="1" stop-color="#FFC400"/></linearGradient><linearGradient id="d" x1="22.144" x2="41.339" y1="19.952" y2="40.758" gradientUnits="userSpaceOnUse"><stop stop-color="#D83B83"/><stop offset="1" stop-color="#6F4A9E"/></linearGradient><linearGradient id="e" x1="2.007" x2="27.667" y1="34.932" y2="23.551" gradientUnits="userSpaceOnUse"><stop stop-color="#9C2383"/><stop offset="1" stop-color="#E72E6C"/></linearGradient><clipPath id="a"><path fill="#fff" d="M0 0h44v44H0z"/></clipPath></defs></svg>