<svg xmlns="http://www.w3.org/2000/svg" width="237" height="64" fill="none"><g clip-path="url(#a)"><mask id="b" width="237" height="64" x="0" y="0" maskUnits="userSpaceOnUse" style="mask-type:luminance"><path fill="#fff" d="M236.8 0H0v64h236.8V0Z"/></mask><g fill="currentColor" mask="url(#b)"><path fill-rule="evenodd" d="M20.91 25.18a12.498 12.498 0 1 1 22.08.842L32.902 43.52l3.024 5.238 11.61-20.108a17.737 17.737 0 0 0-30.72-17.738 17.533 17.533 0 0 0-1.492 14.429 19.858 19.858 0 0 1 2.439-.154l3.145-.006Zm40.687 10.177a17.539 17.539 0 0 0-11.93-8.541 19.77 19.77 0 0 1-1.084 2.198l-1.581 2.736a12.5 12.5 0 1 1-11.59 18.727l-10.07-17.44h-6.046l11.578 20.057c.398.685.84 1.343 1.322 1.972l.096.124a17.517 17.517 0 0 0 13.942 6.772 17.736 17.736 0 0 0 15.36-26.605h.003ZM23.538 55.313a12.496 12.496 0 0 0 4.67-4.222l1.533 2.669c.424.732.897 1.434 1.414 2.102a17.524 17.524 0 0 1-13.392 6.1A17.736 17.736 0 0 1 5.067 31.599a17.74 17.74 0 0 1 12.696-5.11H40.96l-3.014 5.236H17.763a12.502 12.502 0 0 0-.36 24.997 12.5 12.5 0 0 0 6.135-1.41Z" clip-rule="evenodd"/><path d="m107.572 51.846-.921-4.377-.461-.173c-.346.23-.806.403-1.325.403-.921 0-1.728-.518-2.707-1.613l-8.294-9.734 11.404-12.269-.172-.403h-6.74L86.433 36.813v-23.27l-.46-.346-5.818.864V52.48h6.278v-9.562l2.823-3.052 8.121 9.792c1.728 2.13 3.917 3.513 6.682 3.513 1.44 0 2.534-.345 3.283-.864l.23-.46Z"/><path fill-rule="evenodd" d="M189.582 22.989c8.755 0 14.688 6.681 14.688 15.091s-5.933 15.091-14.688 15.091c-4.09 0-7.546-1.67-10.023-4.205v3.514h-5.644V14.118l5.875-.864.403.288v13.076c2.419-2.247 5.645-3.63 9.389-3.63Zm-.749 24.71c5.414 0 8.986-4.262 8.986-9.619 0-5.3-3.572-9.62-8.986-9.62-5.069 0-9.101 3.342-9.101 9.62 0 6.278 4.032 9.62 9.101 9.62ZM235.655 47.526l.921 4.263-.23.403c-.806.576-2.016.98-3.456.98-2.592 0-4.493-1.383-5.242-3.745-2.476 2.362-6.048 3.744-9.849 3.744-5.933 0-11.405-3.283-11.405-9.504 0-6.393 5.76-9.33 12.845-9.33 3.11 0 5.529.575 7.603 1.324v-1.613c0-4.147-3.744-6.163-7.718-6.163-3.284 0-5.818 1.382-7.834 3.34h-.461l-3.168-2.995v-.46c3.111-2.995 7.085-4.781 12.039-4.781 6.22 0 13.305 2.765 13.305 11.06v11.116c0 1.555.288 2.534 1.325 2.534.403 0 .691-.172.922-.345l.403.172Zm-8.813-5.472v-2.13c-1.498-.577-3.974-1.325-6.797-1.325-4.55 0-7.373 1.958-7.373 5.068 0 3.283 3.111 4.896 6.394 4.896 3.974 0 7.776-2.477 7.776-6.509Z" clip-rule="evenodd"/><path d="M168.248 35.142c0-7.2-4.665-12.153-11.981-12.153-3.859 0-7.142 1.382-9.388 3.629-.749-2.304-2.535-3.63-5.184-3.63-1.498 0-2.765.404-3.572.98l-.23.403.922 4.263.403.172c.23-.172.518-.345.921-.345 1.095 0 1.325.98 1.325 2.534V52.48h6.336V35.66c0-4.377 2.938-7.257 7.258-7.257s6.912 2.88 6.912 7.258v16.82h6.278V35.141Z"/><path fill-rule="evenodd" d="m136.327 47.526.921 4.263-.23.403c-.806.576-2.016.98-3.456.98-2.592 0-4.493-1.383-5.242-3.745-2.476 2.362-6.048 3.744-9.849 3.744-5.933 0-11.405-3.283-11.405-9.504 0-6.393 5.76-9.33 12.845-9.33 3.11 0 5.529.575 7.603 1.324v-1.613c0-4.147-3.744-6.163-7.718-6.163-3.284 0-5.818 1.382-7.834 3.34h-.461l-3.168-2.995v-.46c3.111-2.995 7.085-4.781 12.039-4.781 6.22 0 13.305 2.765 13.305 11.06v11.116c0 1.555.288 2.534 1.325 2.534.403 0 .691-.172.922-.345l.403.172Zm-8.813-5.472v-2.13c-1.498-.577-3.974-1.325-6.797-1.325-4.55 0-7.373 1.958-7.373 5.068 0 3.283 3.111 4.896 6.394 4.896 3.974 0 7.776-2.477 7.776-6.509Z" clip-rule="evenodd"/></g></g><defs><clipPath id="a"><path fill="#fff" d="M0 0h236.8v64H0z"/></clipPath></defs></svg>