<svg xmlns="http://www.w3.org/2000/svg" width="192" height="64" fill="none"><g clip-path="url(#a)"><mask id="b" width="192" height="64" x="0" y="0" maskUnits="userSpaceOnUse" style="mask-type:luminance"><path fill="#fff" d="M191.04 0H0v64h191.04V0Z"/></mask><g fill="currentColor" mask="url(#b)"><path d="M43.84 11.52c0 6.362-5.158 11.52-11.52 11.52-6.362 0-11.52-5.158-11.52-11.52C20.8 5.158 25.958 0 32.32 0c6.362 0 11.52 5.158 11.52 11.52ZM31.434 33.45A43.47 43.47 0 0 0 .343 20.387v23.27a20.38 20.38 0 0 1 19.456 14.4A44.75 44.75 0 0 1 31.434 33.45Z"/><path d="M64.298 20.387v23.27A20.368 20.368 0 0 0 43.956 64h-23.27c0-24.048 19.564-43.613 43.612-43.613ZM190.196 45.719l.782 3.615-.195.342c-.684.488-1.71.83-3.078.83-3.37 0-5.08-2.15-5.08-5.47v-9.38c0-3.712-2.198-6.154-5.862-6.154s-6.155 2.442-6.155 6.154V49.92h-5.373V31.7c0-1.32-.195-2.15-1.123-2.15-.343 0-.587.147-.782.293l-.342-.146-.781-3.615.195-.342c.684-.488 1.71-.83 2.98-.83 2.198 0 3.81 1.123 4.445 3.077 1.905-1.905 4.689-3.077 7.962-3.077 6.203 0 10.16 4.2 10.16 10.307v8.5c0 1.318.244 2.149 1.124 2.149.342 0 .586-.147.781-.294l.342.147ZM160.763 45.719l.781 3.615-.195.342c-.684.44-1.71.83-2.931.83-2.394 0-4.005-1.319-4.543-3.566-2.149 2.15-5.129 3.566-8.695 3.566-7.18 0-12.261-5.666-12.261-12.798 0-7.18 5.081-12.798 12.261-12.798 3.566 0 6.497 1.416 8.646 3.517v-2.931h4.69v18.22c0 1.368.293 2.15 1.123 2.15.44 0 .684-.196.782-.294l.342.147Zm-14.752.147c4.25 0 7.669-2.931 7.669-8.158 0-5.276-3.419-8.158-7.62-8.158-4.739 0-7.718 3.664-7.718 8.158 0 4.543 3.028 8.158 7.669 8.158ZM124.139 25.496h5.276V45.67c0 7.816-5.666 11.675-12.359 11.675-4.738 0-8.45-2.003-10.844-4.983v-.342l2.442-2.93h.391c1.71 2.247 4.543 4.054 8.06 4.054 3.957 0 7.132-2.345 7.132-6.839v-1.27c-1.759 1.759-4.201 2.833-7.23 2.833-5.422 0-9.72-3.224-9.72-9.672V31.7c0-1.32-.244-2.15-1.124-2.15-.342 0-.586.147-.781.293l-.342-.146-.782-3.615.195-.342c.684-.488 1.661-.83 3.029-.83 3.273 0 5.032 1.954 5.032 5.324v7.572c0 3.468 2.149 5.52 5.519 5.52 3.468 0 6.106-2.492 6.106-6.156V25.496Z"/><path d="m104.67 45.475 1.025 3.761-.146.342c-.831.586-1.856.928-3.273.928-2.98 0-5.47-1.807-7.67-4.494l-7.912-9.574-2.687 2.931V49.92h-5.422V24.959c0-1.612-.195-2.54-1.27-2.54-.391 0-.733.146-.88.341l-.39-.146-.88-3.81.245-.391c.586-.39 1.758-.83 3.321-.83 3.468 0 5.276 2.393 5.276 5.764v9.476l13.53-14.654h6.156l.195.293L90.601 32.97l8.353 9.965c1.808 2.1 2.834 2.735 3.957 2.735a2.83 2.83 0 0 0 1.368-.342l.391.147Z"/></g></g><defs><clipPath id="a"><path fill="#fff" d="M0 0h191.04v64H0z"/></clipPath></defs></svg>