<svg xmlns="http://www.w3.org/2000/svg" width="204" height="64" fill="none"><path fill="currentColor" d="m29.888 25.69 7.629.937 5.43 8.973L20.307 64l8.045-26.022-7.629-.938-5.43-8.97L37.741 0l-7.853 25.69Z"/><path fill="currentColor" d="M7.226 32a21.914 21.914 0 0 1 20.422-21.837l5.357-6.7a28.8 28.8 0 0 0-12.874 55.9l2.042-6.605A21.931 21.931 0 0 1 7.226 32ZM37.949 4.582 35.926 11.2a21.887 21.887 0 0 1-5.567 42.66l-5.31 6.655a28.8 28.8 0 0 0 12.9-55.933ZM71.736 48V14.79h3.03v30.49h16.36V48h-19.39ZM128.118 48V33.713c0-2.318.662-4.064 1.984-5.238 1.323-1.174 2.943-1.76 4.859-1.76 1.932 0 3.455.572 4.569 1.716 1.13 1.144 1.694 2.77 1.694 4.881V48h2.876V33.133c0-1.96-.387-3.618-1.159-4.97-.758-1.352-1.791-2.377-3.099-3.076-1.307-.698-2.778-1.047-4.413-1.047-1.545 0-2.949.334-4.212 1.003-1.263.668-2.296 1.694-3.099 3.076V14.79h-2.852V48h2.852ZM157.641 24.463v2.519h-4.904v15.736c0 .995.216 1.708.647 2.14.446.415 1.181.623 2.206.623h2.051V48h-2.274c-3.67 0-5.505-1.672-5.505-5.015V26.982h-4.012v-2.519h4.012v-6.419h2.875v6.42h4.904Z"/><path fill="currentColor" fill-rule="evenodd" d="M110.654 57.584c-2.689 0-4.896-.624-6.62-1.872-1.723-1.234-2.756-2.972-3.098-5.216h2.942c.357 1.442 1.115 2.556 2.274 3.344 1.174.787 2.674 1.18 4.502 1.18 2.333 0 4.146-.623 5.439-1.872 1.292-1.233 1.938-2.949 1.938-5.148v-4.458h-.022c-.743 1.53-1.812 2.727-3.209 3.589-1.397.862-2.987 1.292-4.77 1.292-2.021 0-3.804-.505-5.349-1.515-1.531-1.025-2.734-2.452-3.611-4.28-.862-1.842-1.293-3.974-1.293-6.396 0-2.422.431-4.547 1.293-6.375.877-1.828 2.088-3.254 3.633-4.28 1.545-1.025 3.321-1.537 5.327-1.537 1.768 0 3.373.438 4.814 1.315 1.442.862 2.504 2.087 3.187 3.677h.023v-4.569h2.808V48c0 2.184-.453 3.982-1.36 5.394a8.054 8.054 0 0 1-3.655 3.165c-1.53.683-3.261 1.025-5.193 1.025Zm-.245-11.79c2.363 0 4.25-.862 5.661-2.586 1.427-1.739 2.14-4.064 2.14-6.976 0-2.913-.713-5.238-2.14-6.977-1.411-1.738-3.298-2.607-5.661-2.607-2.229 0-4.079.832-5.55 2.496-1.456 1.664-2.184 4.026-2.184 7.088 0 3.06.728 5.423 2.184 7.087 1.471 1.65 3.321 2.474 5.55 2.474Z" clip-rule="evenodd"/><path fill="currentColor" d="M93.858 48V24.463h2.853V48h-2.853ZM93.814 18.758a2.05 2.05 0 0 0 1.47.601c.565 0 1.048-.2 1.45-.602.416-.4.624-.891.624-1.47 0-.58-.209-1.07-.624-1.472a1.975 1.975 0 0 0-1.45-.601c-.564 0-1.054.2-1.47.601a2.001 2.001 0 0 0-.602 1.472c0 .579.2 1.07.602 1.47Z"/><path fill="currentColor" fill-rule="evenodd" d="m163.924 48 11.857-33.21h7.4L194.994 48h-6.486l-2.652-7.935h-12.883L170.254 48h-6.33Zm10.698-12.771h9.629l-1.56-4.681a662.33 662.33 0 0 1-1.516-4.792c-.505-1.664-1.07-3.544-1.694-5.639a444.84 444.84 0 0 1-1.716 5.639 317.207 317.207 0 0 1-1.538 4.792l-1.605 4.68Z" clip-rule="evenodd"/><path fill="currentColor" d="M202.562 14.79V48h-5.884V14.79h5.884Z"/></svg>