<svg xmlns="http://www.w3.org/2000/svg" width="160" height="64" fill="none"><g fill="currentColor" clip-path="url(#a)"><path d="M55.68 0H41.219a12.42 12.42 0 0 0-12.42 12.42v14.46h14.462A12.42 12.42 0 0 0 55.68 14.46V0ZM15.862 26.88H26.88V15.862A9.462 9.462 0 0 0 17.418 6.4H6.4v11.018a9.463 9.463 0 0 0 9.462 9.462ZM12.42 28.8h14.46v14.46a12.42 12.42 0 0 1-12.42 12.42H0V41.22A12.42 12.42 0 0 1 12.42 28.8ZM45.062 64H64V45.062A16.262 16.262 0 0 0 47.737 28.8H28.8v18.938A16.262 16.262 0 0 0 45.062 64ZM93.296 19.924c2.416 0 4.372-1.964 4.372-4.39 0-2.37-1.956-4.334-4.372-4.334-2.359 0-4.315 1.964-4.315 4.333 0 2.427 1.956 4.391 4.315 4.391ZM90.189 52.106V23.218h6.27v28.888h-6.27ZM109.465 28.88c-1.496-4.16-3.452-6.356-6.961-6.356-1.553 0-2.704.405-3.394.867l-.23.462.978 4.391.403.174c.402-.347.978-.462 1.438-.405.92.058 1.668.982 2.646 3.351l8.629 20.743h4.718l11.85-28.485-.23-.404h-5.638l-8.341 21.031-5.868-15.369Z"/><path fill-rule="evenodd" d="m159.36 51.413-.92-4.275-.403-.173c-.23.173-.518.346-.921.346-1.035 0-1.323-.982-1.323-2.542V33.618c0-8.32-7.076-11.094-13.289-11.094-4.947 0-8.917 1.791-12.023 4.796v.462l3.164 3.005h.46c2.014-1.965 4.545-3.351 7.824-3.351 3.97 0 7.709 2.022 7.709 6.182v1.617c-2.071-.75-4.487-1.328-7.594-1.328-7.076 0-12.829 2.946-12.829 9.36 0 6.24 5.466 9.533 11.391 9.533 3.797 0 7.364-1.387 9.837-3.755.748 2.368 2.647 3.755 5.235 3.755 1.438 0 2.646-.404 3.452-.982l.23-.405Zm-9.722-11.902v2.138c0 4.044-3.797 6.529-7.766 6.529-3.28 0-6.386-1.618-6.386-4.911 0-3.12 2.819-5.085 7.364-5.085 2.818 0 5.292.751 6.788 1.329Z" clip-rule="evenodd"/><path d="m82.61 12.702-5.81.867v32.587c0 3.986 2.013 6.644 5.983 6.644 1.553 0 2.818-.404 3.624-.982l.23-.405-.92-4.275-.403-.174c-.23.174-.518.347-.978.347-1.036 0-1.266-.982-1.266-2.542V12.99l-.46-.289Z"/></g><defs><clipPath id="a"><path fill="#fff" d="M0 0h159.68v64H0z"/></clipPath></defs></svg>