<svg xmlns="http://www.w3.org/2000/svg" width="44" height="44" fill="none"><g clip-path="url(#a)"><path fill="url(#b)" stroke="url(#c)" stroke-width="1.76" d="M36.96.879H7.04a6.16 6.16 0 0 0-6.16 6.16v29.92a6.16 6.16 0 0 0 6.16 6.16h29.92a6.16 6.16 0 0 0 6.16-6.16V7.039a6.16 6.16 0 0 0-6.16-6.16Z"/><path fill="url(#d)" fill-rule="evenodd" d="M29.277 23.44a.88.88 0 0 1 1.214.375l5.495 10.989a.88.88 0 0 1-.787 1.273h-14.98a.88.88 0 0 1-.755-.427l-2.574-4.289a.88.88 0 0 1 .327-1.222l12.06-6.7Zm-1.769-3.709a.88.88 0 0 0 .36-1.162L22.787 8.406a.88.88 0 0 0-1.574 0l-8.01 16.019a.88.88 0 0 0 .033.846l.637 1.062a.88.88 0 0 0 1.182.317l12.453-6.918Zm-17.453 10.99a.88.88 0 0 1 1.542-.058l2.45 4.082a.88.88 0 0 1-.756 1.333h-4.49a.88.88 0 0 1-.787-1.274l2.041-4.082Z" clip-rule="evenodd"/></g><defs><linearGradient id="c" x1="41.8" x2="-2.2" y1="-10.121" y2="52.799" gradientUnits="userSpaceOnUse"><stop stop-color="#FDF5F5"/><stop offset="1" stop-color="#F8F8F8"/></linearGradient><linearGradient id="d" x1="39.767" x2="6.244" y1="9.581" y2="38.076" gradientUnits="userSpaceOnUse"><stop stop-color="#F9F9F9"/><stop offset="1" stop-color="#EBEBEB"/></linearGradient><radialGradient id="b" cx="0" cy="0" r="1" gradientTransform="rotate(45.1 .001 0) scale(36.4268 54.1687)" gradientUnits="userSpaceOnUse"><stop stop-color="#0E1724"/><stop offset="1" stop-color="#0B121C"/></radialGradient><clipPath id="a"><path fill="#fff" d="M0 0h44v44H0z"/></clipPath></defs></svg>