<svg xmlns="http://www.w3.org/2000/svg" width="206" height="64" fill="none"><path stroke="currentColor" stroke-width="2.56" d="M53.76 1.28H10.24a8.96 8.96 0 0 0-8.96 8.96v43.52a8.96 8.96 0 0 0 8.96 8.96h43.52a8.96 8.96 0 0 0 8.96-8.96V10.24a8.96 8.96 0 0 0-8.96-8.96Z"/><path fill="currentColor" fill-rule="evenodd" d="M42.585 34.095a1.28 1.28 0 0 1 1.766.546l7.992 15.984a1.28 1.28 0 0 1-1.145 1.852h-21.79a1.28 1.28 0 0 1-1.097-.621l-3.743-6.239a1.28 1.28 0 0 1 .476-1.777l17.54-9.745Zm-2.573-5.393c.6-.333.83-1.079.524-1.692L33.145 12.23c-.472-.944-1.818-.944-2.29 0l-11.65 23.299a1.28 1.28 0 0 0 .048 1.231l.927 1.545a1.28 1.28 0 0 0 1.719.46l18.113-10.062ZM14.626 44.687a1.28 1.28 0 0 1 2.242-.086l3.563 5.938a1.28 1.28 0 0 1-1.098 1.938h-6.531a1.28 1.28 0 0 1-1.145-1.852l2.969-5.938Z" clip-rule="evenodd"/><path fill="currentColor" d="M85.623 49.326V18.24H97.28c6.72 0 10.971 3.474 10.971 8.96 0 3.52-1.6 5.988-4.388 7.36 1.828.96 2.834 2.651 3.52 5.44l2.331 9.326h-5.394l-1.874-8.32c-.823-3.566-2.195-4.252-5.623-4.252h-6.08v12.572h-5.12Zm11.52-26.972h-6.4V32.64h6.308c3.795 0 5.943-2.011 5.943-5.166 0-3.108-2.148-5.12-5.851-5.12Zm38.531 19.017c-1.325 5.669-5.531 8.549-11.245 8.549-7.177 0-11.566-4.8-11.566-12.754 0-8.275 4.389-12.846 11.337-12.846 7.04 0 11.292 4.754 11.292 12.572v1.188h-17.646c.274 4.983 2.606 7.772 6.583 7.772 3.108 0 5.303-1.463 6.125-4.48h5.12ZM124.2 28.39c-3.52 0-5.623 2.24-6.217 6.354h12.434c-.594-4.114-2.743-6.354-6.217-6.354Zm21.082 30.994h-4.891V24.96h4.891v2.926c1.555-2.286 3.84-3.566 6.629-3.566 6.446 0 10.331 4.8 10.331 12.754 0 8.275-3.977 12.846-10.331 12.846-2.789 0-5.074-1.143-6.629-3.383v12.846Zm6.035-30.949c-3.932 0-6.035 3.063-6.035 8.64 0 5.578 2.195 8.732 6.035 8.732 3.84 0 5.942-3.109 5.942-8.732 0-5.531-2.194-8.64-5.942-8.64Zm15.681 20.892V16.41h4.891v32.915h-4.891Zm12.541 10.651c-1.052 0-2.149-.274-2.697-.457v-3.748h1.325c2.789 0 3.84-.55 5.943-5.623l.732-1.692-9.783-23.497h5.257l6.034 15.177 1.052 3.337 1.051-3.337 5.851-15.177h4.983l-11.063 27.2c-2.468 6.08-4.342 7.817-8.685 7.817Z"/></svg>